<svg width="75" height="90" viewBox="0 0 75 90" fill="none" xmlns="http://www.w3.org/2000/svg">
<path d="M41.6532 45.7907C46.4454 46.662 49.7995 43.0193 53.6937 40.8558C56.5645 39.2609 59.3783 37.4325 61.962 35.3978C64.3371 33.5274 66.7247 31.8288 68.5426 29.3591C69.3504 28.2617 69.8391 26.9679 70.6174 25.8753C71.2877 24.9343 71.8624 24.0897 72.2974 23.0263C72.6836 22.0822 73.0188 21.1541 73.3735 20.2082C73.6516 19.4668 74.0624 18.3132 73.0716 19.4031C72.7442 19.7632 72.5443 20.0972 72.0884 20.3089C71.6199 20.5264 69.7323 21.5631 69.7323 21.5631M69.7323 21.5631C67.8393 21.715 70.3301 21.4385 69.7323 21.5631ZM69.7323 21.5631C68.5575 21.8078 66.2549 21.7806 65.1129 21.4237C62.9179 20.7378 61.458 18.8457 58.9891 18.8457C57.8417 18.8457 56.7853 19.2641 55.8149 19.8986C55.0199 20.4184 54.0455 20.3754 53.1672 20.6263C52.8522 20.7163 52.4577 20.6573 52.1298 20.6573C51.8975 20.6573 51.5397 20.5858 51.3247 20.6882C51.0178 20.8344 50.9213 21.1382 50.5582 21.2147C49.9295 21.3471 49.8863 21.8724 49.5905 22.3295C49.015 23.2189 48.7233 24.1391 48.2744 25.1011C47.9237 25.8525 47.7554 26.7977 47.6705 27.6095C47.5586 28.6784 47.15 29.6357 47.0124 30.6908C46.8744 31.7491 46.6634 32.8855 46.3079 33.8959C45.9924 34.7926 45.5433 35.6104 45.3324 36.5591C44.963 38.2215 43.9297 39.6258 43.1337 41.0804C42.8 41.6904 42.2533 42.254 41.988 42.8842C41.8199 43.2832 38.148 44.2882 38.1827 44.7577C38.2344 45.4551 42.6612 44.9256 43.1879 44.8971C45.2618 44.785 46.0476 42.181 47.0357 40.7552C47.8188 39.6252 48.8461 38.6773 49.7376 37.6507C51.15 36.0243 52.4404 34.2523 53.7401 32.5333C54.7429 31.207 55.812 29.9607 56.7595 28.585C57.502 27.5068 58.7609 26.9915 59.4691 25.9527C60.2113 24.8641 60.832 23.6925 61.5749 22.6082C62.0683 21.8881 62.505 21.0477 62.953 20.3011C63.1807 19.9216 63.383 19.5872 63.6575 19.2405C64.0713 18.7178 64.0929 17.9826 64.4239 17.4057C64.8298 16.6983 65.0187 16.6546 65.1904 15.8651C65.3004 15.3588 65.5007 14.0939 65.0433 13.798C64.651 13.5441 64.212 13.4216 63.7968 13.2018C63.344 12.9621 62.4486 12.5298 62.3413 11.9399C62.2881 11.6472 62.4415 11.4008 62.6123 11.1812C62.9039 10.8063 62.9463 10.3504 63.1388 9.92704C63.3971 9.35868 63.5878 8.69408 63.5878 8.06898C63.5878 7.69588 61.5364 7.45686 61.2139 7.30021C60.4975 6.95222 60.1242 6.03822 59.3209 6.03822C58.8747 6.03822 54.9558 5.69147 54.6691 5.59933M54.6691 5.59933C54.099 5.41606 57.428 5.8548 56.6511 5.8548C56.2682 5.78448 55.6116 5.60964 55.2195 5.59933C54.937 5.59189 54.9599 5.64087 54.6691 5.59933ZM54.6691 5.59933C54.2081 5.53346 53.6882 4.71524 53.3265 4.46075C51.795 3.38303 50.7725 4.6311 49.4511 5.52964C47.654 6.75167 46.8279 9.08876 46.3002 11.1115C46.1912 11.5293 45.9237 11.7772 45.8976 12.2341C45.867 12.7698 45.8737 13.2678 45.7815 13.798C45.6959 14.2899 45.74 14.8351 45.7505 15.3309C45.7658 16.051 46.2029 16.5176 46.2924 17.1889C46.4274 18.2015 46.6822 19.1465 46.8344 20.1463C46.982 21.1164 46.726 22.4337 46.726 23.4289C46.726 25.4538 47.144 27.3611 47.144 29.3746C47.144 31.3714 46.6096 33.1405 45.8899 34.9798C45.168 36.8245 44.5712 38.8208 43.6137 40.5616C42.8913 41.8752 42.001 42.8894 41.0744 44.0687C40.0578 45.3626 37.2692 45.0442 35.8719 45.0442C34.6773 45.0442 33.5609 44.8365 32.3803 44.7577C31.9412 44.7285 31.4918 44.5695 31.1184 44.3397C30.4929 43.9548 29.7876 43.8039 29.1055 43.5423C27.683 42.9967 24.9305 41.9097 23.6699 41.0804C22.732 40.4633 22.6887 40.8525 21.6655 40.3836C20.72 39.9502 19.6803 39.5649 18.6694 39.3307C14.7394 38.4201 11.762 36.3575 8.52615 34.1173C7.92887 33.7038 7.28386 33.1652 6.63317 32.8554C6.20795 32.6529 5.74326 32.3503 5.39209 31.9991C4.682 31.289 4.09996 30.5351 3.32501 29.9011C2.78125 29.4562 2.32121 28.5223 1.76889 28.1824C1.49652 28.0148 0.4941 26.4257 0.847608 26.3785C1.65469 26.2709 2.55496 26.5428 3.38694 26.5101C3.98003 26.4869 5.07356 25.684 5.20629 25.1089C5.29511 24.724 5.55811 24.4508 5.6166 24.056C5.72465 23.3267 5.97959 22.8628 6.00218 22.1285C6.01508 21.7091 6.01905 21.1406 6.03466 20.7347C6.05167 20.2924 6.03466 19.8458 6.03466 19.4031C6.03466 19.227 5.90972 18.3358 6.06563 18.1799C6.21911 18.0264 6.33374 17.9925 6.48369 17.7618C6.89528 17.1286 6.92448 17.9457 7.01788 18.3037C7.32742 19.4903 7.38925 20.5531 8.01659 21.6328C8.46363 22.4021 8.66642 23.2732 9.13142 24.0327C9.53578 24.6932 9.9086 25.3186 10.2772 25.9992C10.8742 27.1012 11.483 28.935 12.6075 29.6379C14.7897 31.0017 16.9783 32.4852 19.2888 33.6404C21.783 34.8875 24.1759 36.3325 26.6513 37.643C28.9237 38.846 31.036 40.2902 33.3558 41.4984C34.251 41.9647 34.9902 42.3377 35.9183 42.6752C36.3144 42.8192 37.4722 43.301 37.8073 43.1707C38.3599 42.9558 39.1139 43.1485 39.6112 42.8687C39.9203 42.6949 40.3636 41.8886 40.3157 41.5294C40.2408 40.9678 39.4933 40.5264 39.1235 40.1668C38.4937 39.5546 37.8612 39.3272 37.1183 38.8971C36.4745 38.5244 35.9311 37.9972 35.4306 37.4572C34.8265 36.8054 33.8598 36.4124 33.0693 36.0172C31.6125 35.2888 30.5117 34.6952 30.0732 32.9901C29.8891 32.2741 29.7986 31.5634 29.7171 30.8301C29.5932 29.715 29.167 28.672 29.059 27.5476C28.8672 25.5497 28.4405 23.7265 28.7493 21.6947C28.9677 20.2579 29.5673 18.8791 29.7867 17.4367C29.9643 16.2697 30.2 15.5696 30.7003 14.5412C31.1569 13.6025 31.723 12.7513 32.2332 11.816C32.5645 11.2087 32.7294 10.5784 32.93 9.91929C33.251 8.8645 33.8339 7.93512 34.1532 6.89222C34.3051 6.39588 34.3432 5.8933 34.7106 5.49868C35.002 5.18565 35.2365 4.94176 35.4461 4.56191C36.6279 2.41988 38.9589 4.39077 40.6486 3.65611C41.9159 3.1051 41.8001 3.19877 43.1879 3.19877C43.9702 3.19877 45.4391 2.88327 46.5092 2.06128C46.8173 1.57719 46.8391 1.05095 47.5931 1.34903C48.9764 1.89594 48.8163 3.06115 48.8163 4.35288C48.8163 5.19828 47.9771 6.88716 47.5931 7.65518" stroke="#064420" stroke-width="1.5" stroke-linecap="round"/>
<path d="M41.2912 43.0931C42.4463 40.3154 43.2422 37.5917 43.2422 34.5925C43.2422 33.2635 43.2422 31.9344 43.2422 30.6054C43.2422 28.0662 43.1626 25.8391 41.9106 23.5139C40.985 21.795 39.1714 21.0233 37.7455 19.7436C36.7825 18.8793 36.0978 18.77 34.85 18.5049C33.2127 18.1569 31.5275 18.2331 29.8642 18.0791C27.1916 17.8316 24.5337 17.9755 21.952 18.6287C20.7519 18.9324 19.6585 19.5423 18.3753 19.5423C17.4861 19.5423 15.5284 20.3415 14.6437 20.3784C14.1881 20.3974 18.6221 19.5349 14.6437 20.3165C14.2746 20.4528 13.8012 20.3784 13.4127 20.3784C13.1134 20.3784 12.814 20.3784 12.5147 20.3784C12.0627 20.3784 11.7387 20.0693 11.2992 19.9913C10.3939 19.8307 9.818 19.4591 9.09276 18.9152C8.46519 18.4445 7.97372 16.932 7.98568 16.1668C8.0272 13.5093 12.7529 12.4417 14.8361 11.7171C17.5553 10.7713 20.0498 9.34072 21.9056 6.96946C22.9296 5.66099 23.5297 4.50691 25.0952 3.79529C25.4058 3.65413 25.56 3.35657 25.8849 3.23787C26.3726 3.05968 26.854 2.95916 27.3713 2.95916C28.4859 2.95916 29.7614 3.38161 30.3133 4.43012C31.0863 5.89889 30.844 7.25642 30.9868 8.82751C31.0627 9.66199 31.486 10.4985 31.7532 11.2817C32.1979 12.585 32.7112 13.8515 33.201 15.1371C34.0179 17.2815 34.1734 19.3093 34.4629 21.5706C34.7862 24.0966 34.3729 26.4871 34.0758 28.9874C33.9718 29.8623 33.6526 30.6875 33.6268 31.5731C33.5992 32.5211 33.6268 33.4737 33.6268 34.4222C33.6268 35.03 33.9587 35.2217 34.3313 35.6609C34.8464 36.2679 35.2589 37.0368 35.8564 37.5654C36.8499 38.4442 37.7888 39.4159 38.6977 40.3834C39.8757 41.6374 40.1109 43.2655 40.3158 44.9047" stroke="#064420" stroke-width="1.5" stroke-linecap="round"/>
<path d="M37.7196 45C38.4741 45.5641 39.1917 45.9466 39.8195 46.6488C40.4068 47.3056 40.7151 48.2047 41.0528 49.1412C41.7025 50.943 41.7974 51.7209 42.2891 53.6401C42.8093 55.6704 43.0131 58.9162 42.9994 61.0471C42.2891 67.3284 41.8287 67.1832 40.5328 70.0867C39.0456 73.4191 37.3397 76.5513 35.8264 79.8549C34.8854 81.0652 33.8123 83.2636 33.081 84.5655C32.5034 85.5938 39.7996 71.9008 39.2129 72.9051C38.8568 73.5147 31 88.2428 31 89" stroke="#064420" stroke-width="1.5" stroke-linecap="round"/>
</svg>
