<svg width="25" height="25" viewBox="0 0 25 25" fill="none" xmlns="http://www.w3.org/2000/svg">
<path d="M12.5 0C5.6025 0 0 5.6025 0 12.5C0 19.3975 5.6025 25 12.5 25C19.3975 25 25 19.3975 25 12.5C25 5.6025 19.3975 0 12.5 0ZM12.5 1.08696C18.8094 1.08696 23.913 6.19056 23.913 12.5C23.913 18.8094 18.8094 23.913 12.5 23.913C6.19056 23.913 1.08696 18.8094 1.08696 12.5C1.08696 6.19056 6.19056 1.08696 12.5 1.08696ZM16.8372 7.60233C16.816 7.60445 16.7969 7.60657 16.7778 7.6087H10.6997C10.5023 7.60657 10.3197 7.70847 10.2221 7.87831C10.1223 8.04815 10.1223 8.2562 10.2221 8.42604C10.3197 8.59587 10.5023 8.69777 10.6997 8.69565H15.5358L7.76792 16.4636C7.62568 16.5994 7.56836 16.8032 7.61931 16.9922C7.66814 17.1833 7.81675 17.3319 8.00781 17.3807C8.19676 17.4316 8.40056 17.3743 8.53643 17.2321L16.3043 9.46416V14.3003C16.3022 14.4977 16.4041 14.6803 16.574 14.7779C16.7438 14.8777 16.9519 14.8777 17.1217 14.7779C17.2915 14.6803 17.3934 14.4977 17.3913 14.3003V8.22011C17.4125 8.06301 17.3637 7.90379 17.2576 7.78278C17.1514 7.66389 16.9964 7.59808 16.8372 7.60233Z" fill="#064420"/>
</svg>
